<?xml version="1.0" encoding="UTF-8"?>
<svg id="Logo_Design" data-name="Logo Design" xmlns="http://www.w3.org/2000/svg" viewBox="0 0 1280 1024">
  <defs>
    <style>
      .cls-1, .cls-2, .cls-3 {
        fill: #ff005c;
        stroke: #f0f;
        stroke-miterlimit: 10;
      }

      .cls-2 {
        stroke-width: 1.16px;
      }

      .cls-3 {
        stroke-width: 1.01px;
      }
    </style>
  </defs>
  <path id="Bowl" class="cls-1" d="M814.8,480.38c-88.8.09-261.96-.42-349.27.77-5.19.07-10.54,4.22-10.24,9.42,1.35,23.03,12.41,130.25,113.64,162.15l.08,24.81s1.62,12.7,13.8,12.7l113.69.37c2.33.01,4.65-.39,6.78-1.3,3.69-1.59,8.1-5.06,8.61-12.65v-21.73c0-2.21,1.37-4.17,3.45-4.91,19.21-6.89,112.18-45.92,113.22-155.85.08-7.59-6.18-13.79-13.76-13.78ZM708.73,643.43c-3.14.99-5.28,3.9-5.32,7.2l-.24,25.02c-.59,5.61-7.97,6.21-7.97,6.21h-111.94c-7.09.29-6.8-5.91-6.8-5.91l.51-25.73c.05-2.53-1.62-4.77-4.06-5.45-92.42-25.74-106.59-123.95-108.25-150.43-.23-3.69,2.68-6.8,6.37-6.82l340.47.2c4.18,0,7.52,3.44,7.46,7.61-1.66,107.34-88.1,141.1-110.23,148.1Z"/>
  <g id="Noodles">
    <path class="cls-1" d="M529.43,335.6c-2.75,3.76-1.62,9.09-3.44,13.28-1.78,4.53-5.42,8.15-8.24,12.17-5.35,6.43-6.99,14.76-4.31,22.52,1.23,3.46,3.69,6.38,5.8,9.53,8.04,11.55,10.15,22.8.38,34-3.47,4.89-7.48,6.18-8.4,15.87-1.47,15.57,9.84,26.2,14.06,32.53,1.07,1.61,3.32,4.31,6.38,3.03.63-.26,1.19-.69,1.59-1.25,3.47-4.85-6.88-12.59-8.97-16.91-1.81-2.86-3.22-6.1-3.67-9.86-1.16-9.81,2.71-13.45,8.14-19.53,2.17-2.43,3.99-5.2,5.19-8.23.15-.38.29-.76.43-1.15,3.33-9.53,1.3-20.13-4.83-28.15-3.25-4.26-6.54-8.64-7.75-13.97-2.35-7.78.9-11.16,6.02-16.54,5.8-6.42,9.95-15.33,9.25-24.36-.3-4.54-4.17-7.29-7.54-3.11l-.11.14Z"/>
    <path class="cls-1" d="M556.62,335.6c-2.75,3.76-1.62,9.09-3.44,13.28-1.78,4.53-5.42,8.15-8.24,12.17-5.35,6.43-6.99,14.76-4.31,22.52,1.23,3.46,3.69,6.38,5.8,9.53,8.04,11.55,10.15,22.8.38,34-3.47,4.89-7.48,6.18-8.4,15.87-1.47,15.57,9.84,26.2,14.06,32.53,1.07,1.61,3.32,4.31,6.38,3.03.63-.26,1.19-.69,1.59-1.25,3.47-4.85-6.88-12.59-8.97-16.91-1.81-2.86-3.22-6.1-3.67-9.86-1.16-9.81,2.71-13.45,8.14-19.53,2.17-2.43,3.99-5.2,5.19-8.23.15-.38.29-.76.43-1.15,3.33-9.53,1.3-20.13-4.83-28.15-3.25-4.26-6.54-8.64-7.75-13.97-2.35-7.78.9-11.16,6.02-16.54,5.8-6.42,9.95-15.33,9.25-24.36-.3-4.54-4.17-7.29-7.54-3.11l-.11.14Z"/>
    <path class="cls-1" d="M582.66,335.6c-2.75,3.76-1.62,9.09-3.44,13.28-1.78,4.53-5.42,8.15-8.24,12.17-5.35,6.43-6.99,14.76-4.31,22.52,1.23,3.46,3.69,6.38,5.8,9.53,8.04,11.55,10.15,22.8.38,34-3.47,4.89-7.48,6.18-8.4,15.87-1.47,15.57,9.84,26.2,14.06,32.53,1.07,1.61,3.32,4.31,6.38,3.03.63-.26,1.19-.69,1.59-1.25,3.47-4.85-6.88-12.59-8.97-16.91-1.81-2.86-3.22-6.1-3.67-9.86-1.16-9.81,2.71-13.45,8.14-19.53,2.17-2.43,3.99-5.2,5.19-8.23.15-.38.29-.76.43-1.15,3.33-9.53,1.3-20.13-4.83-28.15-3.25-4.26-6.54-8.64-7.75-13.97-2.35-7.78.9-11.16,6.02-16.54,5.8-6.42,9.95-15.33,9.25-24.36-.3-4.54-4.17-7.29-7.54-3.11l-.11.14Z"/>
    <path class="cls-1" d="M608.71,335.6c-2.75,3.76-1.62,9.09-3.44,13.28-1.78,4.53-5.42,8.15-8.24,12.17-5.35,6.43-6.99,14.76-4.31,22.52,1.23,3.46,3.69,6.38,5.8,9.53,8.04,11.55,10.15,22.8.38,34-3.47,4.89-7.48,6.18-8.4,15.87-1.47,15.57,9.84,26.2,14.06,32.53,1.07,1.61,3.32,4.31,6.38,3.03.63-.26,1.19-.69,1.59-1.25,3.47-4.85-6.88-12.59-8.97-16.91-1.81-2.86-3.22-6.1-3.67-9.86-1.16-9.81,2.71-13.45,8.14-19.53,2.17-2.43,3.99-5.2,5.19-8.23.15-.38.29-.76.43-1.15,3.33-9.53,1.3-20.13-4.83-28.15-3.25-4.26-6.54-8.64-7.75-13.97-2.35-7.78.9-11.16,6.02-16.54,5.8-6.42,9.95-15.33,9.25-24.36-.3-4.54-4.17-7.29-7.54-3.11l-.11.14Z"/>
  </g>
  <g id="Chopsticks">
    <rect class="cls-3" x="451.44" y="346.53" width="58.45" height="8.86" rx="4.43" ry="4.43"/>
    <rect class="cls-3" x="451.44" y="363.15" width="58.45" height="8.86" rx="4.43" ry="4.43"/>
    <rect class="cls-2" x="618.98" y="346.36" width="189.91" height="9.03" rx="3.97" ry="3.97"/>
    <rect class="cls-2" x="618.98" y="363.06" width="189.91" height="9.03" rx="3.97" ry="3.97"/>
  </g>
</svg>